<svg xmlns="http://www.w3.org/2000/svg" width="60" height="60" viewBox="0 0 50 58" class="envelope-icon"><defs><clipPath id="clip-path"><path class="envelope-body-clip-path" d="M50 21 26.29 34.92a2 2 0 0 1-2.57 0L0 21z"/></clipPath><style>.envelope-stroke{fill:#2f2f2f}.top-flap-animated{perspective:1000px;transform-origin:50% 22px;transition-duration:.33s}</style></defs><mask id="top-flap-mask-group"><rect id="bg" x="0" y="0" width="100%" height="100%" fill="#fff"/><path id="top-flap-body" d="M50 21 26.29 39.92a2 2 0 0 1-2.57 0L0 21z" fill="#000" class="top-flap-animated"/></mask><path class="envelope-stroke" d="M48 23v33H2V23h46m2-2H0v37h50V21z"/><path class="envelope-stroke top-flap-animated" d="M44.29 23 25 38.36 5.71 23h38.58M50 21H0l23.71 18.92a2 2 0 0 0 2.57 0L50 21z"/><g id="letter-body" mask="url(#top-flap-mask-group)"><g clip-path="url(#clip-path)"><path class="envelope-stroke" d="M0 25h50v32H0z"/></g><path class="envelope-stroke" d="M42.64 23 25.27 33.19l-.15.09-.13.11-.13-.11-.15-.09L7.36 23h35.28M50 21H0l23.71 13.92a2 2 0 0 0 2.57 0L50 21z"/></g></svg>
