<svg id="logo-kn" data-name="Layer 1" xmlns="http://www.w3.org/2000/svg" width="393.5654" height="50.2197" viewBox="0 0 393.5654 50.2197"> <defs> <style>.cls-1{opacity: 0.7;}.cls-2{fill: #00dcdc;}.cls-3{fill: #ff3232;}.cls-4{fill: #7a7979;}</style> </defs> <g id="cyan" class="cls-1"> <path class="cls-2" d="M58.2173,274.17V225.83h9.7754v18.3423L75.5659,225.83h10.93L76.64,245.6226,87.2212,274.17H77.07l-7.3047-22.1021-1.7725,4.5654V274.17Z" transform="translate(-54.2173 -224.8901)"/> <path class="cls-2" d="M89.0742,274.17V225.83h20.1685v6.7139H98.85v13.1592h7.3584v6.875H98.85v14.8779h10.3931V274.17Z" transform="translate(-54.2173 -224.8901)"/> <path class="cls-2" d="M119.0718,274.17l-8.8892-48.34h9.2651l4.27,29.2993,4.7266-29.2993h9.1309l-9.5605,48.34Z" transform="translate(-54.2173 -224.8901)"/> <path class="cls-2" d="M140.771,274.17V225.83h9.7754v48.34Z" transform="translate(-54.2173 -224.8901)"/> <path class="cls-2" d="M156.2935,274.17V225.8032H163.33l10.6079,25.2979V225.8032h8.11V274.17H175.28l-10.5811-26.8286V274.17Z" transform="translate(-54.2173 -224.8901)"/> <path class="cls-2" d="M198.8057,274.17V225.8032h7.0361L216.45,251.1011V225.8032h8.11V274.17h-6.7676l-10.5811-26.8286V274.17Z" transform="translate(-54.2173 -224.8901)"/> <path class="cls-2" d="M230.3071,274.17V225.83h20.168v6.7139H240.0825v13.1592h7.3594v6.875h-7.3594v14.8779h10.3926V274.17Z" transform="translate(-54.2173 -224.8901)"/> <path class="cls-2" d="M258.3442,274.17l-6.6865-48.34h8.3242l3.0078,32.0117,4.1367-32.0117h7.17l4.0547,31.8237,3.1426-31.8237h8.3516l-6.7676,48.34h-8.3516l-4.0547-31.6357L266.6968,274.17Z" transform="translate(-54.2173 -224.8901)"/> <path class="cls-2" d="M292.5845,258.03V242.0239q0-17.1335,14.0186-17.1338a16.0516,16.0516,0,0,1,5.25.7925,10.6221,10.6221,0,0,1,6.4189,5.626,16.9784,16.9784,0,0,1,1.45,4.4312,28.9981,28.9981,0,0,1,.4424,5.2637v4.1626h-9.6133v-4.458q0-1.3154-.0547-2.27a17.3149,17.3149,0,0,0-.2812-2.1748,7.4441,7.4441,0,0,0-.6182-1.9873,3.5569,3.5569,0,0,0-1.1543-1.3027,3.1244,3.1244,0,0,0-1.84-.5371q-4.2437,0-4.2432,7.1436v20.8667q0,7.1169,4.2432,7.1167a3.1789,3.1789,0,0,0,2.1221-.7251,4.0387,4.0387,0,0,0,1.2344-2.0542,15.5665,15.5665,0,0,0,.5107-2.6055,28.0286,28.0286,0,0,0,.1338-2.9136v-4.9683h9.5605v4.082a33.9061,33.9061,0,0,1-.4561,5.1025,19.4865,19.4865,0,0,1-1.37,4.5386,12.2734,12.2734,0,0,1-2.457,3.7192,10.8754,10.8754,0,0,1-3.8535,2.4443,14.7945,14.7945,0,0,1-5.4248.9263,15.9829,15.9829,0,0,1-5.5723-.9,11.3241,11.3241,0,0,1-4.002-2.417,12.2329,12.2329,0,0,1-2.5908-3.7324,18.5066,18.5066,0,0,1-1.4375-4.66A32.0929,32.0929,0,0,1,292.5845,258.03Z" transform="translate(-54.2173 -224.8901)"/> <path class="cls-2" d="M324.1138,258.2715V242.0239q0-17.1335,14.126-17.1338,14.1533,0,14.1533,17.1338V258.03a31.2013,31.2013,0,0,1-.43,5.3579,18.4058,18.4058,0,0,1-1.4639,4.6592,12.5922,12.5922,0,0,1-2.6318,3.7461,11.2314,11.2314,0,0,1-4.042,2.4307,18.0973,18.0973,0,0,1-11.1455.0137,11.3711,11.3711,0,0,1-4.0273-2.3633,12.1477,12.1477,0,0,1-2.6191-3.6523,18.0862,18.0862,0,0,1-1.4766-4.606A29.9631,29.9631,0,0,1,324.1138,258.2715Zm18.5039,2.2021V239.58q0-7.1433-4.3779-7.1436a3.7129,3.7129,0,0,0-2.2295.6582,3.8051,3.8051,0,0,0-1.3418,1.7988,11.3694,11.3694,0,0,0-.6045,2.2559,15.6515,15.6515,0,0,0-.1748,2.4307v20.8936q0,7.1169,4.3506,7.1167Q342.6167,267.59,342.6177,260.4736Z" transform="translate(-54.2173 -224.8901)"/> <path class="cls-2" d="M357.522,274.17V225.83h11.709l5.1563,32.2266,5.56-32.2266h11.3057v48.34h-7.1973l-.2148-33.999q-.8057,5.2368-2.8193,17t-2.8193,17H370.897l-5.9355-34.2139-.2148,34.2139Z" transform="translate(-54.2173 -224.8901)"/> <path class="cls-2" d="M396.9985,274.17V225.83h9.9639a35.1658,35.1658,0,0,1,4.74.2822,16.23,16.23,0,0,1,4.0283,1.1006,9.1683,9.1683,0,0,1,3.249,2.189,9.9166,9.9166,0,0,1,2.041,3.6118,16.4475,16.4475,0,0,1,.7656,5.3042A9.127,9.127,0,0,1,420,244.28a11.8516,11.8516,0,0,1-5.5449,3.4375q8.6191,2.0947,8.62,12.1924,0,7.2781-3.4912,10.769T408.9224,274.17Zm9.7227-29.3262h1.6641a4.5657,4.5657,0,0,0,2.2559-.51,3.284,3.284,0,0,0,1.3838-1.4907,7.8371,7.8371,0,0,0,.6572-2.1079,16.3112,16.3112,0,0,0,.1885-2.6587,11.4211,11.4211,0,0,0-.1748-2.1216,10.5851,10.5851,0,0,0-.3887-1.5171,2.2869,2.2869,0,0,0-.7256-1.0205,5.4716,5.4716,0,0,0-.8994-.6182,3.6347,3.6347,0,0,0-1.1816-.2949q-.7925-.0945-1.2754-.1074t-1.5039-.0137Zm.0527,22.4243h.9141a8.97,8.97,0,0,0,3.0879-.4429,3.3769,3.3769,0,0,0,1.7988-1.5176,6.8263,6.8263,0,0,0,.8193-2.4307,25.8383,25.8383,0,0,0,.2021-3.6387,10.959,10.959,0,0,0-1.33-5.8813q-1.3286-2.0947-4.5254-2.0947h-.9668Z" transform="translate(-54.2173 -224.8901)"/> <path class="cls-2" d="M427.6138,274.17V225.83h20.1689v6.7139H437.3892v13.1592h7.3594v6.875h-7.3594v14.8779h10.3936V274.17Z" transform="translate(-54.2173 -224.8901)"/> </g> <g id="red" class="cls-1"> <path class="cls-3" d="M54.2173,274.17V225.83h9.7754v18.3423L71.5659,225.83h10.93L72.64,245.6226,83.2212,274.17H73.07l-7.3047-22.1021-1.7725,4.5654V274.17Z" transform="translate(-54.2173 -224.8901)"/> <path class="cls-3" d="M85.0742,274.17V225.83h20.1685v6.7139H94.85v13.1592h7.3584v6.875H94.85v14.8779h10.3931V274.17Z" transform="translate(-54.2173 -224.8901)"/> <path class="cls-3" d="M115.0718,274.17l-8.8892-48.34h9.2651l4.27,29.2993,4.7266-29.2993h9.1309l-9.5605,48.34Z" transform="translate(-54.2173 -224.8901)"/> <path class="cls-3" d="M136.771,274.17V225.83h9.7754v48.34Z" transform="translate(-54.2173 -224.8901)"/> <path class="cls-3" d="M152.2935,274.17V225.8032H159.33l10.6079,25.2979V225.8032h8.11V274.17H171.28l-10.5811-26.8286V274.17Z" transform="translate(-54.2173 -224.8901)"/> <path class="cls-3" d="M194.8057,274.17V225.8032h7.0361L212.45,251.1011V225.8032h8.11V274.17h-6.7676l-10.5811-26.8286V274.17Z" transform="translate(-54.2173 -224.8901)"/> <path class="cls-3" d="M226.3071,274.17V225.83h20.168v6.7139H236.0825v13.1592h7.3594v6.875h-7.3594v14.8779h10.3926V274.17Z" transform="translate(-54.2173 -224.8901)"/> <path class="cls-3" d="M254.3442,274.17l-6.6865-48.34h8.3242l3.0078,32.0117,4.1367-32.0117h7.17l4.0547,31.8237,3.1426-31.8237h8.3516l-6.7676,48.34h-8.3516l-4.0547-31.6357L262.6968,274.17Z" transform="translate(-54.2173 -224.8901)"/> <path class="cls-3" d="M288.5845,258.03V242.0239q0-17.1335,14.0186-17.1338a16.0516,16.0516,0,0,1,5.25.7925,10.6221,10.6221,0,0,1,6.4189,5.626,16.9784,16.9784,0,0,1,1.45,4.4312,28.9981,28.9981,0,0,1,.4424,5.2637v4.1626h-9.6133v-4.458q0-1.3154-.0547-2.27a17.3149,17.3149,0,0,0-.2812-2.1748,7.4441,7.4441,0,0,0-.6182-1.9873,3.5569,3.5569,0,0,0-1.1543-1.3027,3.1244,3.1244,0,0,0-1.84-.5371q-4.2437,0-4.2432,7.1436v20.8667q0,7.1169,4.2432,7.1167a3.1789,3.1789,0,0,0,2.1221-.7251,4.0387,4.0387,0,0,0,1.2344-2.0542,15.5665,15.5665,0,0,0,.5107-2.6055,28.0286,28.0286,0,0,0,.1338-2.9136v-4.9683h9.5605v4.082a33.9061,33.9061,0,0,1-.4561,5.1025,19.4865,19.4865,0,0,1-1.37,4.5386,12.2734,12.2734,0,0,1-2.457,3.7192,10.8754,10.8754,0,0,1-3.8535,2.4443,14.7945,14.7945,0,0,1-5.4248.9263,15.9829,15.9829,0,0,1-5.5723-.9,11.3241,11.3241,0,0,1-4.002-2.417,12.2329,12.2329,0,0,1-2.5908-3.7324,18.5066,18.5066,0,0,1-1.4375-4.66A32.0929,32.0929,0,0,1,288.5845,258.03Z" transform="translate(-54.2173 -224.8901)"/> <path class="cls-3" d="M320.1138,258.2715V242.0239q0-17.1335,14.126-17.1338,14.1533,0,14.1533,17.1338V258.03a31.2013,31.2013,0,0,1-.43,5.3579,18.4058,18.4058,0,0,1-1.4639,4.6592,12.5922,12.5922,0,0,1-2.6318,3.7461,11.2314,11.2314,0,0,1-4.042,2.4307,18.0973,18.0973,0,0,1-11.1455.0137,11.3711,11.3711,0,0,1-4.0273-2.3633,12.1477,12.1477,0,0,1-2.6191-3.6523,18.0862,18.0862,0,0,1-1.4766-4.606A29.9631,29.9631,0,0,1,320.1138,258.2715Zm18.5039,2.2021V239.58q0-7.1433-4.3779-7.1436a3.7129,3.7129,0,0,0-2.2295.6582,3.8051,3.8051,0,0,0-1.3418,1.7988,11.3694,11.3694,0,0,0-.6045,2.2559,15.6515,15.6515,0,0,0-.1748,2.4307v20.8936q0,7.1169,4.3506,7.1167Q338.6167,267.59,338.6177,260.4736Z" transform="translate(-54.2173 -224.8901)"/> <path class="cls-3" d="M353.522,274.17V225.83h11.709l5.1563,32.2266,5.56-32.2266h11.3057v48.34h-7.1973l-.2148-33.999q-.8057,5.2368-2.8193,17t-2.8193,17H366.897l-5.9355-34.2139-.2148,34.2139Z" transform="translate(-54.2173 -224.8901)"/> <path class="cls-3" d="M392.9985,274.17V225.83h9.9639a35.1658,35.1658,0,0,1,4.74.2822,16.23,16.23,0,0,1,4.0283,1.1006,9.1683,9.1683,0,0,1,3.249,2.189,9.9166,9.9166,0,0,1,2.041,3.6118,16.4475,16.4475,0,0,1,.7656,5.3042A9.127,9.127,0,0,1,416,244.28a11.8516,11.8516,0,0,1-5.5449,3.4375q8.6191,2.0947,8.62,12.1924,0,7.2781-3.4912,10.769T404.9224,274.17Zm9.7227-29.3262h1.6641a4.5657,4.5657,0,0,0,2.2559-.51,3.284,3.284,0,0,0,1.3838-1.4907,7.8371,7.8371,0,0,0,.6572-2.1079,16.3112,16.3112,0,0,0,.1885-2.6587,11.4211,11.4211,0,0,0-.1748-2.1216,10.5851,10.5851,0,0,0-.3887-1.5171,2.2869,2.2869,0,0,0-.7256-1.0205,5.4716,5.4716,0,0,0-.8994-.6182,3.6347,3.6347,0,0,0-1.1816-.2949q-.7925-.0945-1.2754-.1074t-1.5039-.0137Zm.0527,22.4243h.9141a8.97,8.97,0,0,0,3.0879-.4429,3.3769,3.3769,0,0,0,1.7988-1.5176,6.8263,6.8263,0,0,0,.8193-2.4307,25.8383,25.8383,0,0,0,.2021-3.6387,10.959,10.959,0,0,0-1.33-5.8813q-1.3286-2.0947-4.5254-2.0947h-.9668Z" transform="translate(-54.2173 -224.8901)"/> <path class="cls-3" d="M423.6138,274.17V225.83h20.1689v6.7139H433.3892v13.1592h7.3594v6.875h-7.3594v14.8779h10.3936V274.17Z" transform="translate(-54.2173 -224.8901)"/> </g></svg>