<svg viewBox="0 0 50 58" class="envelope-icon"> <defs> <style>.envelope-stroke{fill: #2f2f2f;}.top-flap-animated{perspective: 1000px; transform-origin: 50% 22px; transition-duration:0.33s;}</style> <clipPath id="clip-path"> <path class="envelope-body-clip-path" d="M50,21,26.29,34.92a2,2,0,0,1-2.57,0L0,21Z"/> </clipPath> </defs> <mask id="top-flap-mask-group"> <rect id="bg" x="0" y="0" width="100%" height="100%" fill="white"/> <path id="top-flap-body" d="M50,21,26.29,39.92a2,2,0,0,1-2.57,0L0,21Z" fill="black" class="top-flap-animated"/> </mask> <g> <path class="envelope-stroke" d="M48,23V56H2V23H48m2-2H0V58H50V21Z"/> <path class="envelope-stroke top-flap-animated" d="M44.29,23,25,38.36l0,0,0,0,0,0,0,0L5.71,23H44.29M50,21H0L23.71,39.92a2,2,0,0,0,2.57,0L50,21Z"/> </g> <g id="letter-body" mask="url(#top-flap-mask-group)" > <g clip-path="url(#clip-path)"> <rect class="envelope-stroke" y="25" width="50" height="32"/> </g> <path class="envelope-stroke" d="M42.64,23,25.27,33.19l-.15.09-.13.11-.13-.11-.15-.09L7.36,23H42.64M50,21H0L23.71,34.92a2,2,0,0,0,2.57,0L50,21Z"/> </g> </svg>